<?xml version="1.0" standalone="no"?>
<!DOCTYPE svg PUBLIC "-//W3C//DTD SVG 20010904//EN"
 "http://www.w3.org/TR/2001/REC-SVG-20010904/DTD/svg10.dtd">
<svg version="1.0" xmlns="http://www.w3.org/2000/svg"
 width="709.000000pt" height="480.000000pt" viewBox="0 0 709.000000 480.000000"
 preserveAspectRatio="xMidYMid meet">

<g transform="translate(0.000000,480.000000) scale(0.100000,-0.100000)"
fill="#000000" stroke="none">
<path d="M1655 4790 c-212 -19 -324 -93 -384 -254 -12 -33 -37 -149 -56 -259
l-33 -199 -68 -69 c-37 -37 -80 -73 -96 -80 -28 -11 -32 -9 -76 34 -50 49
-104 77 -149 77 -41 0 -121 -41 -174 -88 l-47 -42 -42 46 c-23 25 -56 75 -73
112 -45 95 -42 147 11 280 45 110 53 168 25 179 -13 5 -48 -26 -140 -121 -140
-145 -200 -224 -244 -321 -49 -109 -49 -143 2 -255 23 -52 78 -160 121 -239
211 -385 233 -450 268 -806 17 -166 62 -366 160 -710 49 -170 100 -354 114
-409 16 -61 54 -158 101 -255 41 -86 80 -180 86 -210 23 -108 -11 -244 -73
-296 -36 -31 -103 -33 -211 -8 -89 20 -398 25 -404 6 -2 -6 12 -23 33 -36 l36
-25 -88 -44 c-87 -42 -89 -44 -88 -78 1 -19 7 -49 14 -67 13 -28 12 -34 -4
-52 -10 -11 -48 -30 -85 -42 -123 -40 -120 -69 9 -69 98 0 422 49 620 94 36 8
99 20 140 26 41 7 98 22 125 33 46 19 70 21 335 21 247 1 291 3 329 19 53 21
307 42 385 33 53 -7 54 -8 65 -49 29 -107 31 -140 11 -217 -78 -311 -86 -420
-31 -420 10 0 39 16 63 36 93 78 161 85 259 24 35 -23 88 -53 118 -67 50 -24
57 -25 80 -12 14 8 37 34 49 57 13 23 36 48 50 56 39 19 168 38 237 34 53 -3
60 -1 57 15 -2 10 3 17 13 17 29 0 17 46 -23 82 -39 36 -45 38 -189 90 -51 18
-93 35 -93 38 0 10 147 109 205 138 79 39 186 77 260 92 33 6 96 23 140 36
172 54 359 95 720 159 337 59 365 63 555 80 91 8 235 24 320 36 331 43 466 52
1100 70 484 13 510 17 692 110 160 81 407 251 374 257 -22 5 -153 -30 -333
-88 -152 -49 -261 -73 -385 -85 -65 -6 -67 -6 -80 21 -21 44 -72 56 -253 61
-159 4 -239 16 -232 37 5 15 131 79 197 101 85 27 177 73 184 92 8 21 -14 39
-64 53 -80 23 -423 42 -650 37 -229 -5 -303 -14 -535 -63 -66 -14 -172 -36
-236 -49 -129 -27 -459 -47 -459 -28 0 6 -15 17 -32 24 -25 11 -83 13 -240 12
-211 -2 -233 1 -206 34 23 28 73 42 259 72 99 16 184 32 187 35 25 26 -778
-45 -957 -84 -56 -13 -69 -23 -196 -163 -60 -65 -108 -90 -272 -146 -171 -57
-260 -94 -398 -162 -65 -32 -120 -59 -122 -59 -1 0 -1 100 1 223 3 248 17 344
71 517 18 58 51 164 74 235 43 138 74 196 151 283 26 29 76 106 110 170 132
247 232 343 476 458 198 94 267 145 351 262 117 162 119 303 12 624 -58 172
-71 203 -142 308 -164 248 -340 413 -393 369 -26 -21 -10 -77 72 -257 101
-223 102 -227 68 -332 -42 -133 -96 -230 -130 -230 -6 0 -30 24 -52 54 -118
155 -265 207 -407 142 l-61 -27 -57 38 -57 38 -34 105 c-46 143 -62 209 -76
315 -23 188 -64 290 -150 377 -91 91 -177 109 -415 88z m-312 -380 c19 -16 40
-30 46 -30 21 0 11 -20 -19 -35 -37 -19 -67 -12 -82 20 -11 25 -4 75 12 75 5
0 25 -13 43 -30z m509 -7 c41 -37 8 -118 -57 -143 -50 -19 -76 -12 -117 30
-21 23 -38 44 -38 49 0 4 24 13 54 20 29 6 68 23 87 36 39 29 47 30 71 8z
m-333 -118 c16 -14 46 -48 67 -76 45 -62 83 -83 139 -76 48 5 88 -10 127 -47
35 -34 41 -57 28 -105 -16 -61 -53 -97 -115 -115 -68 -20 -165 -31 -200 -22
-28 7 -28 7 -7 22 12 8 65 25 119 39 121 31 134 44 131 126 -2 65 -10 73 -32
32 -45 -86 -263 -215 -416 -248 -109 -23 -182 -50 -248 -91 -29 -19 -54 -34
-57 -34 -6 0 5 69 21 127 17 62 79 183 141 275 32 46 47 80 50 112 l6 46 53 0
c47 0 57 4 81 30 33 38 71 39 112 5z m267 -288 c-5 -20 -41 -47 -63 -47 -3 0
10 17 28 38 38 43 44 44 35 9z m-614 -524 c46 -22 117 -63 158 -91 71 -49 76
-51 98 -36 76 50 328 124 488 145 83 10 98 9 175 -10 112 -29 181 -62 207 -98
21 -29 21 -33 6 -89 -8 -33 -31 -97 -50 -144 -70 -167 -77 -196 -77 -320 0
-63 8 -182 19 -265 29 -227 27 -259 -24 -352 -23 -43 -73 -138 -110 -212 -62
-125 -67 -140 -70 -210 -2 -51 3 -106 17 -168 12 -51 21 -118 21 -149 l0 -55
-97 -98 c-110 -110 -168 -144 -274 -161 -174 -27 -441 55 -556 171 -74 74
-121 158 -213 385 -45 110 -112 262 -150 339 -37 77 -71 154 -75 170 -7 30
-17 349 -19 605 -1 128 1 141 37 265 64 218 149 368 231 406 66 31 155 22 258
-28z m517 -2493 c111 -22 187 -48 241 -81 l35 -22 -39 -33 c-21 -19 -62 -42
-90 -53 -76 -28 -237 -53 -351 -55 -124 -1 -385 33 -392 51 -11 27 9 81 42
121 83 96 298 124 554 72z m831 -310 c155 -23 192 -32 197 -47 6 -16 -23 -29
-138 -68 l-99 -34 -70 77 c-74 80 -85 102 -47 96 12 -2 83 -13 157 -24z"/>
<path d="M1364 4215 c-19 -14 -18 -14 4 -15 13 0 22 6 22 15 0 19 -1 19 -26 0z"/>
<path d="M1490 4196 c0 -25 12 -46 26 -46 17 0 18 14 4 41 -12 22 -30 25 -30
5z"/>
<path d="M1339 3238 c-70 -95 -131 -264 -145 -398 -9 -96 7 -90 35 13 39 140
88 266 131 334 38 61 45 93 20 93 -5 0 -24 -19 -41 -42z"/>
<path d="M1140 2566 c-104 -66 -198 -69 -345 -11 -51 21 -70 24 -78 15 -9 -9
-6 -16 11 -30 60 -49 206 -81 305 -66 50 8 200 92 194 110 -7 21 -33 16 -87
-18z"/>
<path d="M1274 2589 c-10 -17 11 -31 140 -98 205 -105 359 -138 445 -93 60 30
48 37 -53 34 -125 -5 -189 12 -363 98 -78 38 -147 70 -152 70 -5 0 -13 -5 -17
-11z"/>
<path d="M1182 2461 c-8 -23 -19 -30 -58 -40 -27 -7 -78 -24 -113 -38 -41 -17
-82 -25 -115 -25 -47 1 -49 0 -32 -13 38 -29 78 -28 156 3 66 26 150 53 150
49 0 -1 -10 -27 -22 -57 -31 -78 -32 -209 -2 -265 l22 -39 -25 -32 c-35 -47
-50 -138 -34 -211 21 -95 30 -116 57 -148 l25 -30 -6 30 c-4 17 -10 53 -15 80
-4 28 -14 69 -20 93 -16 56 1 139 36 177 13 14 24 30 24 34 0 5 -12 34 -26 66
-22 48 -26 67 -21 117 6 63 45 188 59 188 16 0 72 -32 134 -76 79 -57 129 -77
168 -70 35 7 66 33 66 54 0 12 -5 10 -23 -6 -43 -40 -80 -29 -207 62 -49 35
-104 67 -121 71 -26 6 -30 10 -25 31 9 35 -20 31 -32 -5z"/>
<path d="M934 2115 c-9 -23 4 -33 61 -45 82 -17 88 -7 18 28 -72 37 -72 37
-79 17z"/>
<path d="M1260 2016 c0 -8 15 -16 37 -19 48 -8 52 -2 14 17 -37 20 -51 20 -51
2z"/>
<path d="M1267 1744 c-12 -12 4 -24 31 -24 26 1 26 1 8 15 -22 17 -30 18 -39
9z"/>
</g>
</svg>
